<?xml version="1.0" standalone="no"?>
<!DOCTYPE svg PUBLIC "-//W3C//DTD SVG 20010904//EN"
 "http://www.w3.org/TR/2001/REC-SVG-20010904/DTD/svg10.dtd">
<svg version="1.0" xmlns="http://www.w3.org/2000/svg"
 width="16.000000pt" height="16.000000pt" viewBox="0 0 16.000000 16.000000"
 preserveAspectRatio="xMidYMid meet">
<metadata>
Created by potrace 1.11, written by Peter Selinger 2001-2013
</metadata>
<g transform="translate(0.000000,16.000000) scale(0.001333,-0.001333)"
fill="#000000" stroke="none">
<path d="M5569 10656 c-2 -2 -94 -7 -204 -10 -110 -4 -225 -9 -255 -11 -201
-11 -270 -16 -310 -20 -25 -2 -79 -7 -120 -10 -75 -6 -120 -10 -215 -20 -128
-13 -153 -16 -195 -20 -25 -3 -65 -8 -90 -10 -25 -3 -76 -9 -115 -15 -38 -5
-90 -12 -115 -15 -89 -12 -115 -16 -140 -20 -14 -3 -38 -7 -55 -9 -168 -26
-426 -72 -545 -97 -225 -47 -338 -74 -540 -126 -252 -64 -231 -59 -250 -65 -8
-3 -71 -22 -140 -43 -130 -38 -393 -127 -445 -150 -16 -7 -75 -31 -130 -53
-55 -22 -126 -52 -157 -66 -31 -14 -61 -26 -65 -26 -5 0 -14 -5 -20 -11 -6 -6
-42 -25 -80 -43 -78 -36 -205 -105 -280 -153 -29 -18 -56 -33 -62 -33 -5 0
-11 -3 -13 -8 -1 -4 -36 -30 -77 -57 -259 -176 -452 -371 -583 -589 -46 -76
-101 -204 -113 -262 -3 -16 -8 -40 -11 -54 -3 -14 -7 -33 -10 -42 -15 -49 -18
-82 -18 -183 -1 -117 2 -136 36 -273 29 -117 73 -219 138 -322 30 -47 57 -87
60 -90 3 -3 29 -35 57 -71 103 -130 260 -265 483 -413 157 -105 146 -98 304
-181 108 -57 334 -162 386 -180 3 -1 12 -4 20 -7 68 -26 156 -37 205 -25 11 3
40 10 64 15 63 15 142 74 190 142 23 33 40 60 37 60 -2 0 0 15 5 33 8 28 15
61 24 117 3 22 -29 140 -49 179 -28 53 -106 125 -166 153 -30 14 -117 54 -193
88 -157 72 -314 157 -437 238 -77 50 -217 165 -263 217 -10 11 -32 35 -48 53
-31 33 -97 157 -105 195 -2 12 -5 47 -5 78 -1 99 72 221 208 349 134 126 272
219 493 333 63 32 119 63 125 68 5 5 15 9 21 9 7 0 41 13 76 29 113 52 388
161 443 175 6 2 17 6 25 9 8 3 47 16 85 28 39 11 90 28 115 36 25 8 52 16 60
18 8 2 65 18 125 35 61 18 117 33 125 35 8 2 35 8 60 15 25 7 53 14 63 16 10
2 26 5 35 8 9 3 28 7 42 10 14 2 43 8 65 14 85 22 389 81 510 98 17 3 53 9 80
14 28 5 68 12 90 15 22 3 67 10 100 15 33 5 83 12 111 15 28 3 59 7 70 9 10 2
48 7 84 11 36 3 76 8 90 10 14 2 57 7 95 11 39 3 77 8 86 9 8 2 55 6 105 10
49 3 100 8 114 10 26 4 107 11 255 20 50 4 110 8 135 10 39 3 227 11 445 20
100 5 924 4 1020 0 44 -2 148 -6 230 -10 83 -3 173 -8 200 -10 28 -2 93 -7
145 -10 52 -3 114 -8 138 -10 24 -3 80 -7 125 -10 45 -3 96 -8 113 -10 18 -3
63 -7 100 -10 38 -3 80 -8 94 -10 14 -2 50 -6 80 -10 30 -3 102 -12 160 -20
58 -8 128 -17 155 -20 28 -3 61 -8 75 -10 14 -3 39 -7 55 -9 67 -11 342 -56
365 -61 14 -3 39 -8 55 -11 328 -59 788 -181 1115 -296 476 -167 887 -386
1102 -587 152 -142 219 -255 219 -371 0 -60 -5 -80 -35 -142 -50 -102 -104
-162 -279 -313 -30 -26 -119 -86 -192 -130 -94 -57 -385 -207 -385 -198 0 3
-11 -2 -25 -11 -14 -9 -25 -14 -25 -10 0 4 -6 2 -12 -4 -7 -5 -53 -26 -103
-47 -169 -69 -239 -143 -271 -286 -15 -68 -14 -100 4 -172 24 -94 76 -168 151
-216 52 -34 153 -65 207 -63 36 1 146 28 189 47 17 7 71 29 120 50 84 34 414
194 425 205 3 3 54 34 114 70 339 203 617 477 745 735 42 85 57 127 93 270 45
180 23 419 -57 617 -25 62 -102 201 -129 236 -8 9 -41 51 -74 92 -67 85 -161
182 -224 231 -24 19 -51 41 -62 51 -61 55 -317 225 -441 293 -123 67 -432 215
-449 215 -2 0 -25 10 -52 22 -27 12 -53 23 -59 24 -5 1 -35 12 -65 24 -161 65
-691 230 -814 254 -11 2 -77 18 -146 35 -158 38 -251 59 -293 66 -17 4 -70 15
-117 25 -47 10 -101 22 -120 25 -19 3 -71 12 -115 20 -101 18 -143 25 -175 30
-14 2 -52 8 -85 14 -71 12 -105 18 -165 25 -25 3 -54 8 -65 10 -11 2 -49 7
-85 11 -36 4 -72 9 -80 10 -8 2 -42 6 -75 10 -33 3 -73 8 -90 10 -105 13 -329
34 -535 50 -41 3 -100 8 -130 10 -30 3 -111 7 -180 11 -69 3 -150 8 -180 10
-72 6 -1126 15 -1131 10z"/>
<path d="M5677 9654 c-1 -1 -64 -5 -141 -8 -76 -4 -152 -8 -170 -11 -17 -2
-71 -7 -121 -10 -49 -3 -110 -8 -135 -11 -79 -8 -294 -35 -320 -39 -14 -2 -45
-7 -70 -10 -207 -28 -589 -108 -820 -171 -52 -14 -99 -27 -105 -28 -5 -2 -37
-11 -70 -21 -33 -11 -62 -19 -65 -20 -3 0 -18 -5 -35 -12 -16 -6 -68 -26 -115
-43 -132 -49 -364 -153 -380 -170 -3 -3 -27 -19 -55 -35 -161 -92 -311 -216
-404 -335 -28 -36 -55 -71 -61 -77 -28 -34 -83 -162 -107 -250 -64 -237 -16
-477 135 -679 71 -95 117 -143 197 -210 98 -81 136 -102 221 -122 78 -18 83
-18 158 0 160 37 254 136 286 299 11 58 11 75 -4 134 -23 94 -50 141 -109 194
-99 91 -167 162 -167 177 0 50 84 133 225 222 42 26 203 105 280 136 126 52
390 139 485 161 8 1 35 8 60 15 25 7 52 13 60 15 8 2 62 12 120 23 113 22 130
25 258 47 91 15 166 26 205 30 25 2 64 7 88 10 48 6 108 12 209 20 36 3 79 8
95 10 155 19 968 28 1210 12 195 -13 437 -35 560 -52 17 -2 53 -7 80 -10 28
-4 91 -13 140 -21 50 -8 104 -17 120 -20 66 -10 244 -46 300 -61 33 -8 68 -17
78 -18 10 -2 57 -16 105 -30 466 -140 777 -302 873 -455 14 -23 14 -27 -3 -57
-23 -38 -81 -92 -164 -153 -83 -61 -126 -127 -148 -230 -17 -76 -17 -85 -1
-154 19 -89 67 -165 134 -216 41 -31 92 -60 106 -59 3 0 30 -5 60 -11 54 -11
84 -9 160 10 22 6 46 12 53 14 28 6 219 153 286 221 84 84 177 219 210 303 34
87 66 234 66 305 0 34 -9 100 -21 147 -11 47 -22 92 -24 100 -10 47 -52 132
-103 208 -154 232 -441 435 -837 592 -118 47 -365 128 -442 145 -10 2 -101 24
-203 48 -247 60 -492 107 -690 133 -30 4 -64 8 -75 10 -37 5 -120 14 -165 19
-25 2 -63 6 -85 9 -69 8 -210 19 -410 32 -79 5 -793 13 -798 8z"/>
<path d="M5945 7727 c-94 -28 -139 -77 -169 -187 -47 -176 -230 -569 -387
-833 -35 -60 -75 -128 -89 -151 -40 -69 -270 -429 -288 -451 -4 -5 -36 -55
-71 -110 -34 -55 -89 -140 -122 -190 -32 -49 -64 -101 -70 -115 -6 -13 -14
-27 -18 -30 -5 -3 -17 -19 -27 -37 -11 -17 -50 -80 -88 -140 -38 -59 -80 -126
-93 -148 -13 -22 -37 -60 -53 -85 -16 -25 -43 -70 -61 -100 -17 -30 -34 -57
-38 -60 -3 -3 -15 -21 -25 -40 -69 -128 -180 -342 -181 -350 0 -3 -6 -14 -12
-25 -6 -11 -36 -79 -66 -150 -67 -161 -127 -344 -166 -507 -40 -168 -47 -204
-67 -373 -13 -107 -5 -359 17 -490 68 -418 194 -706 447 -1025 99 -124 285
-300 401 -379 20 -14 42 -31 49 -38 7 -7 17 -13 22 -13 5 0 15 -6 22 -13 7 -7
36 -26 63 -42 28 -16 52 -32 55 -35 11 -13 220 -105 299 -132 171 -58 391
-106 576 -124 155 -15 419 -5 555 21 41 8 86 17 100 19 272 49 550 167 794
339 55 39 106 77 115 86 9 9 38 33 63 54 50 40 175 162 221 215 149 173 276
382 357 587 32 79 103 343 114 420 38 273 40 499 6 698 -22 125 -30 166 -54
263 -126 511 -344 939 -964 1889 -68 105 -132 202 -143 217 -10 15 -19 31 -19
37 0 5 -3 11 -7 13 -5 2 -20 21 -34 43 -14 22 -46 72 -71 110 -339 524 -566
954 -584 1105 -18 156 -72 230 -186 258 -55 14 -70 14 -123 -1z"/>
</g>
</svg>
